<svg width="256" height="256" viewBox="0 0 256 256" fill="none" xmlns="http://www.w3.org/2000/svg">
  <rect width="256" height="256" rx="64" fill="#14B8A6"/>
  <path d="M132.984 60C168.79 60 191.399 81.2842 196.657 112.501H163.626C159.314 100.108 149.051 93.2843 132.984 93.2843C112.628 93.2843 97.8732 108.142 97.8732 129.744C97.8732 151.897 112.943 166.675 133.931 166.675C151.421 166.675 163.152 156.754 165.804 141.113H138.722V115.673H197.917V133.249C194.001 163.291 169.029 200 133.379 200C94.5199 200 66.5625 170.848 66.5625 129.744C66.5625 89.114 94.1367 60 132.984 60Z" fill="#F8FAFC"/>
</svg>
