<svg width="256" height="256" viewBox="0 0 256 256" fill="none" xmlns="http://www.w3.org/2000/svg">
  <rect width="256" height="256" rx="64" fill="#08111F"/>
  <rect x="24" y="24" width="208" height="208" rx="52" fill="#0D1726" stroke="#2DD4BF" stroke-opacity="0.28"/>
  <path d="M128.764 78C158.948 78 178 95.9435 182.431 122.267H154.582C150.949 111.822 142.301 106.071 128.764 106.071C111.615 106.071 99.1858 118.592 99.1858 136.8C99.1858 155.472 111.881 167.929 129.563 167.929C144.298 167.929 154.183 159.564 156.418 146.379H133.596V124.931H183.5V139.749C180.199 165.07 159.146 196 128.299 196C94.6883 196 70.5 171.426 70.5 136.8C70.5 102.574 94.3568 78 128.764 78Z" fill="#F4F7FB"/>
</svg>
